<?xml version="1.0" standalone="no"?>
<!DOCTYPE svg PUBLIC "-//W3C//DTD SVG 20010904//EN"
 "http://www.w3.org/TR/2001/REC-SVG-20010904/DTD/svg10.dtd">
<svg version="1.0" xmlns="http://www.w3.org/2000/svg"
 width="32.000000pt" height="32.000000pt" viewBox="0 0 32.000000 32.000000"
 preserveAspectRatio="xMidYMid meet">

<g transform="translate(0.000000,32.000000) scale(0.100000,-0.100000)"
fill="#000000" stroke="none">
<path d="M103 231 c-18 -15 -23 -30 -23 -69 0 -42 4 -52 25 -66 31 -20 79 -20
110 0 21 14 25 24 25 66 0 60 -25 87 -80 87 -20 0 -45 -8 -57 -18z m95 -36 c2
-12 -8 -31 -23 -45 -31 -29 -43 -21 -19 14 9 15 13 30 9 34 -4 4 -10 1 -12 -5
-6 -17 -33 -17 -33 0 0 22 12 28 45 25 21 -2 31 -9 33 -23z m-38 -85 c0 -5 -4
-10 -10 -10 -5 0 -10 5 -10 10 0 6 5 10 10 10 6 0 10 -4 10 -10z"/>
</g>
</svg>
